<?xml version="1.0" standalone="no"?>
<!DOCTYPE svg PUBLIC "-//W3C//DTD SVG 20010904//EN"
 "http://www.w3.org/TR/2001/REC-SVG-20010904/DTD/svg10.dtd">
<svg version="1.0" xmlns="http://www.w3.org/2000/svg"
 width="64.000000pt" height="64.000000pt" viewBox="0 0 64.000000 64.000000"
 preserveAspectRatio="xMidYMid meet">

<g transform="translate(0.000000,64.000000) scale(0.100000,-0.100000)"
fill="#000000" stroke="none">
<path d="M406 588 c-12 -39 -13 -58 -2 -67 20 -17 38 4 34 39 -3 34 -25 53
-32 28z"/>
<path d="M461 516 c-23 -24 -21 -46 3 -46 18 0 59 47 51 59 -10 18 -30 13 -54
-13z"/>
<path d="M334 482 c-12 -9 -23 -22 -25 -28 -6 -18 -162 -141 -184 -145 -27 -6
-31 -29 -6 -36 12 -3 21 -13 21 -24 0 -10 4 -20 9 -23 5 -3 9 -24 9 -47 1 -38
8 -55 46 -103 20 -25 50 -16 105 32 38 33 42 41 33 59 -9 17 -8 24 9 39 16 15
19 27 15 70 -4 51 -3 54 30 79 19 14 34 33 34 41 0 16 -59 104 -69 104 -3 0
-16 -8 -27 -18z m-4 -241 c0 -12 -20 -25 -27 -18 -7 7 6 27 18 27 5 0 9 -4 9
-9z"/>
<path d="M481 451 c-23 -15 -5 -41 28 -41 31 0 50 16 35 30 -16 14 -49 20 -63
11z"/>
</g>
</svg>
