<?xml version="1.0" standalone="no"?>
<!DOCTYPE svg PUBLIC "-//W3C//DTD SVG 20010904//EN"
 "http://www.w3.org/TR/2001/REC-SVG-20010904/DTD/svg10.dtd">
<svg version="1.0" xmlns="http://www.w3.org/2000/svg"
 width="50.000000pt" height="50.000000pt" viewBox="0 0 50.000000 50.000000"
 preserveAspectRatio="xMidYMid meet">

<g transform="translate(0.000000,50.000000) scale(0.100000,-0.100000)"
fill="#000000" stroke="none">
<path d="M120 465 c-26 -32 13 -81 48 -59 22 14 27 41 12 59 -16 19 -44 19
-60 0z"/>
<path d="M380 455 c-26 -32 13 -81 48 -59 22 14 27 41 12 59 -16 19 -44 19
-60 0z"/>
<path d="M192 396 c-82 -21 -96 -27 -127 -62 -42 -48 -43 -80 -1 -77 15 1 39
9 53 18 20 13 22 19 12 31 -7 8 -20 12 -30 9 -23 -8 -25 10 -3 19 25 9 52 -2
59 -25 8 -24 -6 -43 -45 -59 -26 -11 -30 -17 -30 -53 0 -22 -7 -67 -17 -100
-14 -50 -14 -60 -2 -68 8 -5 19 -7 24 -6 14 5 43 95 45 137 1 32 2 33 13 15 6
-11 14 -49 17 -85 4 -57 8 -65 25 -65 17 0 20 8 23 60 2 37 -3 82 -14 117 -13
43 -15 68 -8 100 9 42 9 42 74 58 53 13 66 20 68 38 4 28 -12 28 -136 -2z"/>
<path d="M319 346 c-25 -18 -59 -37 -77 -40 -22 -5 -32 -13 -32 -27 0 -24 35
-25 86 -4 l36 15 -7 -28 c-3 -15 -17 -44 -31 -65 -29 -45 -52 -153 -36 -169
20 -20 39 0 47 49 7 48 40 107 54 98 5 -2 17 -37 27 -76 18 -71 35 -92 57 -70
19 19 -27 179 -58 203 -28 22 -32 50 -11 68 18 14 58 10 64 -8 3 -9 -3 -11
-21 -7 -35 9 -46 -14 -17 -37 25 -20 55 -24 65 -8 4 6 1 34 -5 62 -11 43 -17
52 -46 64 -45 19 -45 19 -95 -20z"/>
</g>
</svg>
