<?xml version="1.0" standalone="no"?>
<!DOCTYPE svg PUBLIC "-//W3C//DTD SVG 20010904//EN"
 "http://www.w3.org/TR/2001/REC-SVG-20010904/DTD/svg10.dtd">
<svg version="1.0" xmlns="http://www.w3.org/2000/svg"
 width="64.000000pt" height="64.000000pt" viewBox="0 0 64.000000 64.000000"
 preserveAspectRatio="xMidYMid meet">

<g transform="translate(0.000000,64.000000) scale(0.100000,-0.100000)"
fill="#000000" stroke="none">
<path d="M213 580 c-31 -19 -59 -57 -49 -67 2 -3 57 -2 120 2 110 7 115 8 105
27 -16 29 -70 58 -109 58 -19 0 -49 -9 -67 -20z"/>
<path d="M137 458 c-2 -18 -1 -34 3 -36 4 -1 5 -13 3 -25 -2 -13 8 -40 25 -65
20 -29 27 -51 24 -71 -4 -27 -10 -31 -83 -52 -43 -12 -79 -27 -79 -32 0 -4 5
-17 10 -28 10 -17 23 -19 151 -19 134 0 142 1 160 23 28 31 42 69 30 77 -21
13 -15 65 13 107 17 26 26 51 23 62 -3 11 -1 21 3 23 4 2 5 18 3 36 l-5 32
-138 0 -138 0 -5 -32z m118 -48 c-3 -5 -12 -10 -20 -10 -8 0 -17 5 -20 10 -4
6 5 10 20 10 15 0 24 -4 20 -10z m100 0 c-3 -5 -12 -10 -20 -10 -8 0 -17 5
-20 10 -4 6 5 10 20 10 15 0 24 -4 20 -10z m-117 -50 c10 0 23 5 30 12 9 9 15
9 24 0 19 -19 47 -14 73 13 52 51 16 -23 -39 -82 -16 -18 -37 -33 -45 -33 -22
1 -52 28 -84 75 -34 50 -35 72 -2 40 13 -14 32 -25 43 -25z m7 -110 c3 -5 19
-10 35 -10 16 0 32 5 35 10 14 22 26 8 23 -27 l-3 -38 -55 0 -55 0 -3 38 c-3
35 9 49 23 27z"/>
<path d="M445 306 c-11 -8 -16 -19 -12 -30 5 -14 17 -16 59 -14 61 4 71 20 27
42 -39 20 -50 20 -74 2z"/>
<path d="M460 241 c-27 -5 -39 -14 -52 -40 -9 -18 -26 -43 -37 -55 -25 -27
-26 -47 -6 -86 l16 -30 109 0 c101 0 110 2 124 22 25 36 19 78 -20 141 -40 61
-46 64 -134 48z m44 -47 c24 -9 20 -33 -4 -27 -28 7 -25 -4 8 -32 l27 -24 -21
-21 c-18 -18 -25 -20 -43 -11 -26 14 -19 31 9 24 28 -7 25 7 -7 33 -28 22 -28
22 -9 43 22 24 19 23 40 15z"/>
</g>
</svg>
