<?xml version="1.0" standalone="no"?>
<!DOCTYPE svg PUBLIC "-//W3C//DTD SVG 20010904//EN"
 "http://www.w3.org/TR/2001/REC-SVG-20010904/DTD/svg10.dtd">
<svg version="1.0" xmlns="http://www.w3.org/2000/svg"
 width="50.000000pt" height="50.000000pt" viewBox="0 0 50.000000 50.000000"
 preserveAspectRatio="xMidYMid meet">

<g transform="translate(0.000000,50.000000) scale(0.100000,-0.100000)"
fill="#000000" stroke="none">
<path d="M0 345 l0 -95 100 0 c76 0 102 3 106 14 8 21 -25 125 -48 145 -22 21
-61 31 -119 31 l-39 0 0 -95z"/>
<path d="M294 396 c-3 -8 -4 -25 -2 -38 2 -19 9 -23 38 -23 33 0 35 2 35 35 0
32 -3 35 -33 38 -21 2 -34 -2 -38 -12z"/>
<path d="M358 306 c-27 -31 -38 -36 -74 -36 -45 0 -67 -16 -43 -31 23 -14 93
-10 117 7 26 18 24 19 45 -22 15 -30 15 -32 -15 -68 -27 -34 -30 -42 -24 -84
3 -25 10 -50 15 -55 15 -15 33 3 27 27 -4 18 -2 17 17 -6 45 -56 63 -25 25 42
l-23 39 33 33 c17 19 32 40 32 48 -1 28 -65 135 -83 138 -10 2 -30 -11 -49
-32z"/>
<path d="M108 232 l-108 -3 0 -89 0 -90 98 0 c125 0 132 6 132 108 0 39 -3 72
-7 74 -5 2 -56 2 -115 0z m67 -82 c0 -21 -5 -26 -34 -28 -47 -5 -63 14 -32 39
33 27 66 22 66 -11z"/>
<path d="M210 40 c-8 -5 -30 -10 -48 -10 -49 0 -35 -24 16 -28 31 -2 44 1 48
12 9 24 1 37 -16 26z"/>
</g>
</svg>
